# xmcd
#
# Track frame offsets:
#	150
#	15920
#	35595
#	50475
#	69592
#	80692
#	95677
#	112527
#	128620
#	144375
#	158072
#	171935
#
# Disc length: 2482 seconds
#
# Revision: 5
# Processed by: cddbd v1.5.2PL0 Copyright (c) Steve Scherf et al.
# Submitted via: audiograbber 1.83.01
#
DISCID=9109b00c
DTITLE=Various Artist - New Country - September 1995
DYEAR=1995
DGENRE=Country
TTITLE0=Sawyer Brown - (This Thing Called) Wantin' And Havin' It All
TTITLE1=Leslie Tucker - True Gentleman
TTITLE2=Brett James - Female Bonding
TTITLE3=Steve Riley and The Mamou Playboys - Je M'en Fous Pas Mal
TTITLE4=Dead Hot Workshop - Lead Thoughts
TTITLE5=Laurie Lewis and Tom Rozum - Sleepy Eyes
TTITLE6=Blackhawk - I'm Not Strong Enough To Say No
TTITLE7=Hootie and The Blowfish - Running From An Angel
TTITLE8=Hootie and The Blowfish - Fine Line
TTITLE9=Victoria Shaw - (A Day In The Life Of A) Single Mother
TTITLE10=Blue Highway - In The Gravel Yard
TTITLE11=Calvin Gilmore - Take The Light To The Mountain (Theme from "Christy")
EXTD=
EXTT0=
EXTT1=
EXTT2=
EXTT3=
EXTT4=
EXTT5=
EXTT6=
EXTT7=
EXTT8=
EXTT9=
EXTT10=
EXTT11=
PLAYORDER=
